<svg id="icon" xmlns="http://www.w3.org/2000/svg" width="77" height="77" viewBox="0 0 77 77">
  <path id="Path_22159" data-name="Path 22159" d="M33.083,28.208v8.021H20.25a8.021,8.021,0,0,0-8.021,8.021v6.417H1V44.25A19.25,19.25,0,0,1,20.25,25h9.625A3.208,3.208,0,0,1,33.083,28.208Z" transform="translate(0.604 15.104)" fill="#eea2ad"/>
  <path id="Path_22160" data-name="Path 22160" d="M29.192,25H19.567A19.25,19.25,0,0,0,2.13,36.117c6.77-7.427,14.133-6.3,23.854-6.3a3.208,3.208,0,0,1,3.208,3.208v3.208H32.4V28.208A3.208,3.208,0,0,0,29.192,25Z" transform="translate(1.287 15.104)" fill="#ecc9ce"/>
  <path id="Path_22161" data-name="Path 22161" d="M46.667,40.062,40.25,56.1H21V49.687H31.411a3.208,3.208,0,0,0,3.208-2.936C37.266,13.145,37.042,16.433,37.042,16l6.417,1.6C43.779,19.882,43.25,16.241,46.667,40.062Z" transform="translate(12.688 9.667)" fill="#eea2ad"/>
  <path id="Path_22162" data-name="Path 22162" d="M40.653,40.062C35.375,53.265,35.359,52.9,35.52,52.9A2.182,2.182,0,0,1,33.5,49.912l3.946-9.85C34.028,16.241,34.557,19.85,34.236,17.6c-3.85-.962-3.289-.513-3.208-1.6l6.417,1.6C37.765,19.882,37.236,16.241,40.653,40.062Z" transform="translate(18.701 9.667)" fill="#ecc9ce"/>
  <path id="Path_22163" data-name="Path 22163" d="M45.042,10.6v9.625a1.6,1.6,0,0,1-1.6,1.6H35.417A6.417,6.417,0,0,1,35.417,9h8.021A1.6,1.6,0,0,1,45.042,10.6Z" transform="translate(17.521 5.438)" fill="#eea2ad"/>
  <path id="Path_22164" data-name="Path 22164" d="M37.708,18.937c-3.208,0-4.909.241-6.818-.979.257-2.984-.433-.626,3.385-.626h3.208Z" transform="translate(18.663 9.938)" fill="#edb996"/>
  <path id="Path_22165" data-name="Path 22165" d="M43.813,14.813A4.813,4.813,0,0,1,39,19.625V10A4.813,4.813,0,0,1,43.813,14.813Z" transform="translate(23.563 6.042)" fill="#f6ccaf"/>
  <path id="Path_22166" data-name="Path 22166" d="M42.5,17.206a4.812,4.812,0,0,1-2.5.706V10.18a4.813,4.813,0,0,1,2.5,7.026Z" transform="translate(24.167 6.15)" fill="#fce18a"/>
  <path id="Path_22167" data-name="Path 22167" d="M55.458,47.056H33c7.042-17.646,6.192-16.042,6.946-16.042A16.042,16.042,0,0,1,55.458,47.056Z" transform="translate(19.938 18.715)" fill="#eea2ad"/>
  <path id="Path_22168" data-name="Path 22168" d="M54.654,43.833H33.8L38.933,31A16.043,16.043,0,0,1,54.655,43.837Z" transform="translate(20.421 18.729)" fill="#ecc9ce"/>
  <path id="Path_22169" data-name="Path 22169" d="M24.25,41A9.625,9.625,0,1,1,5,41Z" transform="translate(3.021 24.771)" fill="#94a4b2"/>
  <path id="Path_22170" data-name="Path 22170" d="M51.25,41A9.625,9.625,0,1,1,32,41Z" transform="translate(19.333 24.771)" fill="#94a4b2"/>
  <rect id="Rectangle_2198" data-name="Rectangle 2198" width="22.458" height="19.25" transform="translate(1.604 20.854)" fill="#d6ad98"/>
  <path id="Path_22171" data-name="Path 22171" d="M21.042,13V29.042H11.417A6.417,6.417,0,0,1,5,22.625V13Z" transform="translate(3.021 7.854)" fill="#e9d3c7"/>
  <path id="Path_22172" data-name="Path 22172" d="M24.625,27.425H15V21.008c3.064,0,6.625-.5,8.759,3.208a6.417,6.417,0,0,1,.866,3.208Z" transform="translate(9.063 12.679)" fill="#f6ccaf"/>
  <path id="Path_22173" data-name="Path 22173" d="M23.759,24.217H15V21.008C18.064,21.008,21.625,20.511,23.759,24.217Z" transform="translate(9.063 12.679)" fill="#ffdec7"/>
  <path id="Path_22174" data-name="Path 22174" d="M12.417,13v9.625l-3.208-1.6L6,22.625V13Z" transform="translate(3.625 7.854)" fill="#f6ccaf"/>
  <path id="Path_22175" data-name="Path 22175" d="M43.229,10.6v8.021h-1.6A9.625,9.625,0,0,1,32,9h9.625A1.6,1.6,0,0,1,43.229,10.6Z" transform="translate(19.333 5.438)" fill="#ecc9ce"/>
  <path id="Path_22176" data-name="Path 22176" d="M29.812,7.417H25V1h4.813a3.208,3.208,0,1,1,0,6.417Z" transform="translate(15.104 0.604)" fill="#eea2ad"/>
  <path id="Path_22177" data-name="Path 22177" d="M28.854,32V46.437H8V40.021A8.021,8.021,0,0,1,16.021,32Z" transform="translate(4.833 19.333)" fill="#eea2ad"/>
  <path id="Path_22178" data-name="Path 22178" d="M15.64,32a8.021,8.021,0,0,0-7.01,4.219c2.374-1.3,2.647-1.011,16.635-1.011V46.437h3.208V32Z" transform="translate(5.214 19.333)" fill="#ecc9ce"/>
  <path id="Path_22179" data-name="Path 22179" d="M11.813,13v6.417h-1.6A3.208,3.208,0,0,1,7,16.208V13Z" transform="translate(4.229 7.854)" fill="#ffdec7"/>
  <path id="Path_22180" data-name="Path 22180" d="M60.75,48.205l-2.759-19.33c2.486,0,4.668.433,5.791-1.733a6.417,6.417,0,0,0,0-12.577,3.208,3.208,0,0,0-2.823-1.733H52.938c-.85,0,0,1.091-3.385-5.534a1.315,1.315,0,0,0-.321-.4A4.812,4.812,0,0,0,44.917,0H40.1a1.6,1.6,0,0,0-1.6,1.6V8.021a1.6,1.6,0,0,0,1.6,1.6c5.037,0,5.518.144,6.8-.449l2.31,4.62a8.021,8.021,0,0,0-4.139,5.454H40.1a1.6,1.6,0,0,0,0,3.208h4.973a8.021,8.021,0,0,0,3.048,4.813l-2.422,29a1.6,1.6,0,0,1-1.6,1.476H35.292c0-15.721.176-15.111-.481-16.507,1.829-1.8-1.123-9.16-7.54-9.16h-1.6V20.854a1.6,1.6,0,0,0-1.6-1.6H1.6a1.6,1.6,0,0,0-1.6,1.6V40.1a1.6,1.6,0,0,0,1.6,1.6H9.785A20.854,20.854,0,0,0,0,59.354v6.417a1.6,1.6,0,0,0,1.6,1.6H6.545a11.229,11.229,0,0,0,3.208,6.417H1.6A1.6,1.6,0,0,0,1.6,77H17.646a11.229,11.229,0,0,0,11.1-9.625H49.857a11.229,11.229,0,0,0,3.208,6.417H44.917a1.6,1.6,0,0,0,0,3.208H60.958a11.229,11.229,0,0,0,11.1-9.625H75.4a1.6,1.6,0,0,0,1.6-1.6A17.646,17.646,0,0,0,60.75,48.205ZM44.917,6.417H41.708V3.208h3.208a1.6,1.6,0,1,1,0,3.208Zm19.25,17.2V18.095a3.208,3.208,0,0,1,0,5.518ZM49.729,19.25H48.414a4.813,4.813,0,0,1,4.524-3.208h8.021v9.625H52.938a4.813,4.813,0,0,1-4.524-3.208h1.315a1.6,1.6,0,1,0,0-3.208ZM32.083,64.167H14.438V59.354a6.417,6.417,0,0,1,6.417-6.417H32.083ZM27.271,35.292a4.813,4.813,0,0,1,4.54,3.208H25.667V35.292ZM14.438,22.458V27.88c-1.829-.914-1.6-.77-3.208,0V22.458ZM3.208,38.5V22.458H8.021c0,8.358-.353,9.015,1.075,9.529.85.3,1.331-.112,3.738-1.315,2.7,1.348,2.791,1.524,3.545,1.364,1.733-.369,1.267-1.508,1.267-9.625h4.813V38.5Zm0,20.854A17.646,17.646,0,0,1,20.854,41.708h9.625a1.6,1.6,0,0,1,1.6,1.6v6.417H20.854a9.625,9.625,0,0,0-9.625,9.625v4.812H3.208Zm6.577,8.021h5.1a3.208,3.208,0,0,0,5.518,0h5.1a8.021,8.021,0,0,1-15.721,0Zm25.506-3.208V60.958H44.1a4.812,4.812,0,0,0,4.813-4.411L51.2,28.875H54.75l3,20.662-5.9,14.63ZM53.1,67.375h5.1a3.208,3.208,0,0,0,5.518,0h5.1a8.021,8.021,0,0,1-15.721,0Zm2.214-3.208,5.1-12.833A14.437,14.437,0,0,1,73.792,64.167Z" transform="translate(0)" fill="#212121"/>
  <path id="Path_22181" data-name="Path 22181" d="M25.813,46H22.6a1.6,1.6,0,0,0,0,3.208h3.208a1.6,1.6,0,0,0,0-3.208Z" transform="translate(12.688 27.792)"/>
</svg>
