<svg xmlns="http://www.w3.org/2000/svg" width="76.983" height="77" viewBox="0 0 76.983 77">
  <g id="Size_T-Shirt" data-name="Size T-Shirt" transform="translate(0.005 0.015)">
    <path id="Path_22377" data-name="Path 22377" d="M50.986,31.47c0,1.2.545,12.284,1.331,32.073H13.829c1.764-42.321,1.331-29.6,1.331-32.073,0-.16,1.3,0-14.16-1.6L9.018,5.811,21.848,1A11.226,11.226,0,0,0,44.3,1L57.128,5.811l8.018,24.055C50.2,31.47,50.986,31.341,50.986,31.47Z" transform="translate(0.606 0.613)" fill="#a0cffc"/>
    <path id="Path_22378" data-name="Path 22378" d="M43.742,31.47c0,2.422-.4-9.75,1.2,28.866H22.622A9.622,9.622,0,0,1,13,50.714V1.609L14.6,1A11.226,11.226,0,1,0,37.055,1L49.884,5.811,57.9,29.866C42.956,31.47,43.742,31.341,43.742,31.47Z" transform="translate(7.85 0.613)" fill="#c0dffb"/>
    <path id="Path_22379" data-name="Path 22379" d="M36.451,1A11.226,11.226,0,0,1,14,1Z" transform="translate(8.454 0.613)" fill="#94a4b2"/>
    <path id="Path_22380" data-name="Path 22380" d="M29.622,1A11.226,11.226,0,0,1,20,12.1,11.226,11.226,0,0,0,32.829,1Z" transform="translate(12.076 0.613)" fill="#c4ccd4"/>
    <path id="Path_22381" data-name="Path 22381" d="M11.31,16.682,11.037,23,7.83,22.648,8.1,16.586a1.6,1.6,0,1,1,3.207.1Z" transform="translate(4.729 9.082)" fill="#82bcf4"/>
    <path id="Path_22382" data-name="Path 22382" d="M35.464,22.633l-3.207.353L32,16.6a1.6,1.6,0,0,1,3.207,0Z" transform="translate(19.32 9.064)" fill="#82bcf4"/>
    <path id="Path_22383" data-name="Path 22383" d="M1.43,32.082l12.685,1.411L12.832,64.156a1.6,1.6,0,0,0,1.6,1.6c42.08,0,38.969.208,39.643-.5s.561,1.491-.834-31.785c13.423-1.491,13.278-1.219,13.856-2.133s.834.625-7.842-25.434c-.353-1.026-.176-.69-13.792-5.805-.561-.192-22.9-.1-23.3-.1S23.609-.6,9.063,4.82c-1.042.481-.289-.9-8.981,25.145A1.6,1.6,0,0,0,1.43,32.082Zm41.7-28.866a9.622,9.622,0,0,1-18.939,0ZM10.908,7.659,21.059,3.842A12.829,12.829,0,0,0,32.076,14.33V27.271a1.6,1.6,0,0,0,3.207,0V14.33A12.829,12.829,0,0,0,46.3,3.842L56.452,7.659,63.6,29.1,53.116,30.27l-.192-4.6a1.6,1.6,0,1,0-3.207,0l1.6,36.884H16.039l1.6-36.884a1.6,1.6,0,1,0-3.207,0l-.192,4.667L3.755,29.164Z" transform="translate(0)" fill="#212121"/>
    <path id="Path_22384" data-name="Path 22384" d="M50.018,62.543h-1.6V3.207h1.6a1.6,1.6,0,1,0,0-3.207H43.6a1.6,1.6,0,0,0,0,3.207h1.6V62.543H43.6a1.6,1.6,0,0,0,0,3.207h6.415a1.6,1.6,0,1,0,0-3.207Z" transform="translate(25.357 0.009)" fill="#212121"/>
    <path id="Path_22385" data-name="Path 22385" d="M64.147,43.6v1.6H3.207V43.6A1.6,1.6,0,0,0,0,43.6v6.415a1.6,1.6,0,1,0,3.207,0v-1.6H64.147v1.6a1.6,1.6,0,0,0,3.207,0V43.6a1.6,1.6,0,0,0-3.207,0Z" transform="translate(0.003 25.363)" fill="#212121"/>
    <path id="Path_22386" data-name="Path 22386" d="M24.6,13.207A1.6,1.6,0,1,0,23,11.6,1.6,1.6,0,0,0,24.6,13.207Z" transform="translate(13.887 6.046)" fill="#212121"/>
    <path id="Path_22387" data-name="Path 22387" d="M24.6,17.207A1.6,1.6,0,1,0,23,15.6,1.6,1.6,0,0,0,24.6,17.207Z" transform="translate(13.887 8.46)" fill="#212121"/>
  </g>
</svg>
