<svg id="icno" xmlns="http://www.w3.org/2000/svg" width="77" height="77" viewBox="0 0 77 77">
  <path id="Path_22133" data-name="Path 22133" d="M29.875,48.708h19.25V61.542H1V7H49.125V19.833H29.875Z" transform="translate(0.604 4.229)" fill="#9fdbf3"/>
  <path id="Path_22134" data-name="Path 22134" d="M29.875,19.833V48.708h19.25V61.542H1V7H49.125V19.833Z" transform="translate(0.604 4.229)" fill="#c3eafb"/>
  <path id="Path_22135" data-name="Path 22135" d="M24.438,48.708h19.25V61.542H10V7H43.687V19.833H24.438Z" transform="translate(6.042 4.229)" fill="#e6f8ff"/>
  <path id="Path_22136" data-name="Path 22136" d="M63.917,19V38.25a3.208,3.208,0,0,1-3.208,3.208H19V19Z" transform="translate(11.479 11.479)" fill="#edebf2"/>
  <path id="Path_22137" data-name="Path 22137" d="M61.5,19V38.25a3.208,3.208,0,0,1-3.208,3.208H29.417A6.417,6.417,0,0,1,23,35.042V19Z" transform="translate(13.896 11.479)" fill="#f9f9f9"/>
  <path id="Path_22138" data-name="Path 22138" d="M63.917,18.208v3.208H19V15H60.708A3.208,3.208,0,0,1,63.917,18.208Z" transform="translate(11.479 9.063)" fill="#6e8498"/>
  <path id="Path_22139" data-name="Path 22139" d="M61.5,18.208v3.208H23V15H58.292A3.208,3.208,0,0,1,61.5,18.208Z" transform="translate(13.896 9.063)" fill="#b4bbc2"/>
  <path id="Path_22140" data-name="Path 22140" d="M39.5,30.31a3.208,3.208,0,1,0,0-4.2" transform="translate(23.865 15.104)" fill="#f9db9d"/>
  <path id="Path_22141" data-name="Path 22141" d="M41.906,25A3.208,3.208,0,0,0,39.5,26.107v.61a3.208,3.208,0,0,1,3.722,4.411A3.208,3.208,0,0,0,41.906,25Z" transform="translate(23.865 15.104)" fill="#fbedc2"/>
  <circle id="Ellipse_139" data-name="Ellipse 139" cx="3.208" cy="3.208" r="3.208" transform="translate(57.75 40.104)" fill="#e391b6"/>
  <path id="Path_22142" data-name="Path 22142" d="M39.1,25a3.208,3.208,0,0,0-2.92,1.893,3.208,3.208,0,0,1,4.235,4.235A3.208,3.208,0,0,0,39.1,25Z" transform="translate(21.859 15.104)" fill="#f2a8c9"/>
  <rect id="Rectangle_2196" data-name="Rectangle 2196" width="9.625" height="6.417" transform="translate(36.896 36.896)" fill="#b4bbc2"/>
  <path id="Path_22143" data-name="Path 22143" d="M49.125,7.417v3.208H1V7.417A6.417,6.417,0,0,1,7.417,1H42.708A6.417,6.417,0,0,1,49.125,7.417Z" transform="translate(0.604 0.604)" fill="#a0cffc"/>
  <path id="Path_22144" data-name="Path 22144" d="M43.687,7.417v3.208H10V7.417A6.417,6.417,0,0,1,16.417,1H37.271A6.417,6.417,0,0,1,43.687,7.417Z" transform="translate(6.042 0.604)" fill="#c0dffb"/>
  <path id="Path_22145" data-name="Path 22145" d="M49.125,41c0,3.112.209,4.54-.866,6.417a6.417,6.417,0,0,1-5.55,3.208H7.417A6.417,6.417,0,0,1,1,44.208V41Z" transform="translate(0.604 24.771)" fill="#a0cffc"/>
  <path id="Path_22146" data-name="Path 22146" d="M43.687,41c0,3.112.209,4.54-.866,6.417h-26.4A6.417,6.417,0,0,1,10,41Z" transform="translate(6.042 24.771)" fill="#c0dffb"/>
  <path id="Path_22147" data-name="Path 22147" d="M72.188,22.458H51.333V8.021A8.021,8.021,0,0,0,43.313,0H8.021A8.021,8.021,0,0,0,0,8.021V68.979A8.021,8.021,0,0,0,8.021,77H43.313a8.021,8.021,0,0,0,8.021-8.021V54.542H72.188A4.812,4.812,0,0,0,77,49.729V27.271A4.813,4.813,0,0,0,72.188,22.458Zm1.6,4.813v1.6H32.083V25.667h40.1A1.6,1.6,0,0,1,73.792,27.271ZM3.208,8.021A4.813,4.813,0,0,1,8.021,3.208H43.313a4.812,4.812,0,0,1,4.813,4.812v1.6H3.208ZM48.125,68.979a4.813,4.813,0,0,1-4.812,4.813H8.021a4.813,4.813,0,0,1-4.812-4.812v-1.6H48.125Zm0-4.812H3.208V12.833H48.125v9.625H32.083V19.25a1.6,1.6,0,1,0-3.208,0v38.5a1.6,1.6,0,0,0,3.208,0V54.542H48.125ZM72.188,51.333h-40.1V32.083H73.792V49.729A1.6,1.6,0,0,1,72.188,51.333Z" fill="#212121"/>
  <path id="Path_22148" data-name="Path 22148" d="M42.247,24.674a4.812,4.812,0,1,0,0,8.278,4.813,4.813,0,1,0,0-8.278Zm-4.026,4.139a1.6,1.6,0,1,1,1.6,1.6A1.6,1.6,0,0,1,38.221,28.813Zm6.417,1.6c-.529,0,0-.289,0-1.6s-.577-1.6,0-1.6a1.6,1.6,0,1,1,0,3.208Z" transform="translate(21.133 14.5)" fill="#212121"/>
  <path id="Path_22149" data-name="Path 22149" d="M33.229,22H23.6A1.6,1.6,0,0,0,22,23.6v6.417a1.6,1.6,0,0,0,1.6,1.6h9.625a1.6,1.6,0,0,0,1.6-1.6V23.6A1.6,1.6,0,0,0,33.229,22Zm-1.6,6.417H25.208V25.208h6.417Z" transform="translate(13.292 13.292)" fill="#212121"/>
  <path id="Path_22150" data-name="Path 22150" d="M14.6,46.208h6.417a1.6,1.6,0,0,0,0-3.208H14.6a1.6,1.6,0,0,0,0,3.208Z" transform="translate(7.854 25.979)" fill="#212121"/>
</svg>
