<svg id="icon" xmlns="http://www.w3.org/2000/svg" width="76.974" height="77" viewBox="0 0 76.974 77">
  <path id="Path_21874" data-name="Path 21874" d="M68.75,30.53c0,2.695.385,1.6-20.341,22.33a12.833,12.833,0,0,1-9.064,3.754H11V38.134c7.331-5.037,12.833-3.978,31.041-3.978a4.812,4.812,0,0,1,4.652,6.032L60.376,27.354A4.812,4.812,0,0,1,68.75,30.53Z" transform="translate(6.646 15.574)" fill="#f8dcc9"/>
  <path id="Path_21875" data-name="Path 21875" d="M32.25,31.773Z" transform="translate(19.484 19.175)" fill="#edb996"/>
  <path id="Path_21876" data-name="Path 21876" d="M66.985,26.45c-.465,1.893.128.882-20.18,21.191a12.833,12.833,0,0,1-9.064,3.754H11v4.813H39.346a12.833,12.833,0,0,0,9.064-3.754L67.338,33.524a4.812,4.812,0,0,0-.353-7.074Z" transform="translate(6.646 15.98)" fill="#f6ccaf"/>
  <rect id="Rectangle_2165" data-name="Rectangle 2165" width="16.042" height="27.271" transform="translate(1.604 48.125)" fill="#b5e08c"/>
  <path id="Path_21877" data-name="Path 21877" d="M15.229,30c0,20.277-.16,19.25,0,19.25A11.229,11.229,0,0,1,4,38.021V30Z" transform="translate(2.417 18.125)" fill="#e1efd3"/>
  <path id="Path_21878" data-name="Path 21878" d="M57.125,26.667,33.063,42.708,9,26.667h8.021V1H49.1V26.667Z" transform="translate(5.438 0.604)" fill="#eea2ad"/>
  <path id="Path_21879" data-name="Path 21879" d="M43.67,26.694A25.667,25.667,0,0,1,18,1.027c0-.16-1.267,0,25.667,0Z" transform="translate(10.871 0.577)" fill="#ecc9ce"/>
  <path id="Path_21880" data-name="Path 21880" d="M36.241,40.625H22.2a1.6,1.6,0,1,1,0-3.208H36.241a3.208,3.208,0,0,0,0-6.417,4.813,4.813,0,0,1,0,9.625Z" transform="translate(12.446 18.729)" fill="#edb996"/>
  <path id="Path_21881" data-name="Path 21881" d="M74.113,25.772a6.561,6.561,0,0,0-8.2.962L54.686,37.37a6.417,6.417,0,0,0-6-4.2c-17.806,0-22.667-.786-29.436,2.775V33.167a1.6,1.6,0,0,0-1.6-1.6H1.6a1.6,1.6,0,0,0-1.6,1.6V60.438a1.6,1.6,0,0,0,1.6,1.6H17.646a1.6,1.6,0,0,0,1.6-1.6v-1.6H45.991a14.437,14.437,0,0,0,10.154-4.219L75.075,35.67a6.417,6.417,0,0,0-.962-9.9ZM16.042,58.834H3.208V34.771H16.042Zm56.82-25.426L53.916,52.417a11.133,11.133,0,0,1-7.925,3.208H19.25V39.584a21.448,21.448,0,0,1,11.39-3.208c19.956,0,19.025-.321,20.325.946a3.208,3.208,0,0,1-2.278,5.47H34.65a1.6,1.6,0,1,0,0,3.208H48.686A6.416,6.416,0,0,0,54.7,41.815L68.145,28.98a3.234,3.234,0,1,1,4.716,4.428Z" transform="translate(0 14.958)" fill="#212121"/>
  <path id="Path_21882" data-name="Path 21882" d="M8.717,28.6c26.1,17.405,24.255,16.314,24.945,16.314S32.587,45.943,58.607,28.6a1.6,1.6,0,0,0-.882-2.936H51.308V1.6A1.6,1.6,0,0,0,49.7,0H17.62a1.6,1.6,0,0,0-1.6,1.6V25.667H9.6A1.6,1.6,0,0,0,8.717,28.6Zm8.9.273a1.6,1.6,0,0,0,1.6-1.6V3.208H48.1V27.271a1.6,1.6,0,0,0,1.6,1.6h2.727L33.662,41.387,14.893,28.875Z" transform="translate(4.838 0)" fill="#212121"/>
  <path id="Path_21883" data-name="Path 21883" d="M32.1,4.675,19.27,23.925A1.6,1.6,0,0,0,20.6,26.412c1.219,0,.289.85,14.165-19.972A1.6,1.6,0,0,0,32.1,4.675Z" transform="translate(11.482 2.463)" fill="#212121"/>
  <path id="Path_21884" data-name="Path 21884" d="M25,16.813A4.813,4.813,0,1,0,29.813,12,4.813,4.813,0,0,0,25,16.813Zm6.417,0a1.6,1.6,0,1,1-1.6-1.6A1.6,1.6,0,0,1,31.417,16.813Z" transform="translate(15.104 7.25)" fill="#212121"/>
  <path id="Path_21885" data-name="Path 21885" d="M26.625,8.812a4.813,4.813,0,1,0-4.812,4.812,4.812,4.812,0,0,0,4.813-4.812Zm-6.417,0a1.6,1.6,0,1,1,1.6,1.6A1.6,1.6,0,0,1,20.208,8.812Z" transform="translate(10.271 2.417)" fill="#212121"/>
</svg>
