<svg xmlns="http://www.w3.org/2000/svg" width="209.08" height="60" viewBox="0 0 209.08 60">
  <g id="App_Store" data-name="App Store" transform="translate(-10.681 -10.68)">
    <path id="Path_21592" data-name="Path 21592" d="M219.761,64.666a6.014,6.014,0,0,1-6.021,6.014H16.709a6.022,6.022,0,0,1-6.028-6.014V16.7a6.03,6.03,0,0,1,6.028-6.022H213.739A6.021,6.021,0,0,1,219.76,16.7l0,47.963Z" fill="#fff"/>
    <path id="Path_21594" data-name="Path 21594" d="M219.761,64.666a6.014,6.014,0,0,1-6.021,6.014H16.709a6.022,6.022,0,0,1-6.028-6.014V16.7a6.03,6.03,0,0,1,6.028-6.022H213.739A6.021,6.021,0,0,1,219.76,16.7l0,47.963Z"/>
    <path id="Path_21595" data-name="Path 21595" d="M180.728,95.909a9.1,9.1,0,0,1,4.336-7.638,9.323,9.323,0,0,0-7.343-3.97c-3.089-.325-6.085,1.848-7.659,1.848-1.6,0-4.028-1.817-6.639-1.764a9.776,9.776,0,0,0-8.229,5.019c-3.558,6.16-.9,15.214,2.5,20.193,1.705,2.44,3.7,5.162,6.306,5.066,2.552-.1,3.505-1.625,6.584-1.625,3.051,0,3.946,1.625,6.606,1.564,2.739-.042,4.463-2.45,6.109-4.91A20.134,20.134,0,0,0,186.1,104,8.807,8.807,0,0,1,180.728,95.909ZM175.7,81.025a8.961,8.961,0,0,0,2.051-6.421,9.127,9.127,0,0,0-5.9,3.053,8.527,8.527,0,0,0-2.1,6.184A7.539,7.539,0,0,0,175.7,81.025Z" transform="translate(-124.133 -55.559)" fill="#fff"/>
    <path id="Path_21597" data-name="Path 21597" d="M522.077,231.517h-2.611l-1.43-4.494h-4.971l-1.363,4.494H509.16l4.927-15.3h3.042Zm-4.472-6.38-1.293-4q-.206-.612-.772-2.882h-.046q-.228.976-.727,2.882l-1.272,4Zm17.117.728a6.249,6.249,0,0,1-1.529,4.448,4.483,4.483,0,0,1-3.4,1.453,3.4,3.4,0,0,1-3.15-1.565v5.789H524.19V224.11q0-1.768-.091-3.626h2.156l.137,1.749h.046a4.36,4.36,0,0,1,6.98-.434A6.1,6.1,0,0,1,534.721,225.865Zm-2.5.09a4.546,4.546,0,0,0-.727-2.657,2.511,2.511,0,0,0-2.134-1.089,2.55,2.55,0,0,0-1.645.6,2.789,2.789,0,0,0-.964,1.579,3.187,3.187,0,0,0-.114.746v1.841a2.952,2.952,0,0,0,.738,2.033,2.45,2.45,0,0,0,1.918.829,2.511,2.511,0,0,0,2.156-1.067A4.7,4.7,0,0,0,532.224,225.954Zm15.186-.09a6.247,6.247,0,0,1-1.529,4.448,4.485,4.485,0,0,1-3.4,1.453,3.4,3.4,0,0,1-3.15-1.565v5.789h-2.451V224.11q0-1.768-.091-3.626h2.156l.137,1.749h.046a4.362,4.362,0,0,1,6.981-.434A6.106,6.106,0,0,1,547.41,225.865Zm-2.5.09a4.544,4.544,0,0,0-.728-2.657,2.506,2.506,0,0,0-2.132-1.089,2.558,2.558,0,0,0-1.647.6,2.788,2.788,0,0,0-.964,1.579,3.264,3.264,0,0,0-.115.746v1.841a2.96,2.96,0,0,0,.737,2.033,2.455,2.455,0,0,0,1.92.829,2.509,2.509,0,0,0,2.155-1.067A4.7,4.7,0,0,0,544.912,225.954Zm16.686,1.27a4.086,4.086,0,0,1-1.36,3.179,6.028,6.028,0,0,1-4.167,1.339,7.275,7.275,0,0,1-3.962-.953l.567-2.043a6.818,6.818,0,0,0,3.541.954,3.341,3.341,0,0,0,2.156-.624,2.04,2.04,0,0,0,.773-1.667,2.134,2.134,0,0,0-.637-1.567,5.9,5.9,0,0,0-2.11-1.18q-4.018-1.5-4.02-4.383a3.869,3.869,0,0,1,1.419-3.087,5.61,5.61,0,0,1,3.757-1.2,7.423,7.423,0,0,1,3.473.727l-.615,2a6.074,6.074,0,0,0-2.94-.7,2.99,2.99,0,0,0-2.028.636,1.818,1.818,0,0,0-.615,1.386,1.875,1.875,0,0,0,.7,1.5,7.947,7.947,0,0,0,2.224,1.18,7.534,7.534,0,0,1,2.905,1.86A3.875,3.875,0,0,1,561.6,227.225Zm8.125-4.9h-2.7v5.356q0,2.044,1.43,2.042a4.318,4.318,0,0,0,1.089-.114l.068,1.861a5.55,5.55,0,0,1-1.906.271,2.939,2.939,0,0,1-2.271-.886,4.348,4.348,0,0,1-.817-2.974v-5.561H563v-1.84h1.61v-2.02l2.408-.726v2.746h2.7Zm12.166,3.586a6.052,6.052,0,0,1-1.453,4.177,5.181,5.181,0,0,1-4.04,1.68,4.938,4.938,0,0,1-3.871-1.61,5.868,5.868,0,0,1-1.442-4.063,6,6,0,0,1,1.486-4.2,5.155,5.155,0,0,1,4.009-1.635,5.041,5.041,0,0,1,3.9,1.612A5.793,5.793,0,0,1,581.889,225.91Zm-2.541.056a4.939,4.939,0,0,0-.656-2.6,2.426,2.426,0,0,0-2.2-1.314,2.461,2.461,0,0,0-2.248,1.314,5.023,5.023,0,0,0-.658,2.649,4.927,4.927,0,0,0,.658,2.6,2.514,2.514,0,0,0,4.43-.022A4.961,4.961,0,0,0,579.348,225.966Zm10.511-3.326a4.255,4.255,0,0,0-.773-.068,2.314,2.314,0,0,0-2,.977,3.682,3.682,0,0,0-.612,2.179v5.789h-2.451v-7.558q0-1.906-.071-3.473h2.135l.09,2.111h.068a3.78,3.78,0,0,1,1.225-1.749,2.964,2.964,0,0,1,1.772-.591,3.937,3.937,0,0,1,.612.045Zm10.963,2.839a5.736,5.736,0,0,1-.09,1.112h-7.354a3.2,3.2,0,0,0,1.067,2.5,3.646,3.646,0,0,0,2.405.77,8.138,8.138,0,0,0,2.976-.521l.384,1.7a9.2,9.2,0,0,1-3.7.682,5.361,5.361,0,0,1-4.031-1.508,5.577,5.577,0,0,1-1.464-4.052,6.319,6.319,0,0,1,1.364-4.153,4.7,4.7,0,0,1,3.857-1.77,4.112,4.112,0,0,1,3.611,1.77A5.954,5.954,0,0,1,600.823,225.478Zm-2.338-.636a3.319,3.319,0,0,0-.476-1.884,2.14,2.14,0,0,0-1.952-1.023,2.323,2.323,0,0,0-1.951,1,3.659,3.659,0,0,0-.726,1.906Z" transform="translate(-423.479 -175.442)" fill="#fff"/>
    <path id="Path_21598" data-name="Path 21598" d="M525.012,86.513h-1.279l-.7-2.2H520.6l-.667,2.2h-1.245l2.411-7.489h1.488Zm-2.189-3.122-.633-1.956c-.066-.2-.189-.666-.378-1.411h-.023c-.078.322-.189.789-.356,1.411l-.622,1.956Zm8.219-2.277L529,86.513h-1.167l-1.978-5.4h1.289l.923,2.856c.156.477.289.933.388,1.366h.033c.089-.388.222-.844.388-1.366l.911-2.856Zm4.353,5.4-.089-.622h-.033a1.841,1.841,0,0,1-1.578.744,1.572,1.572,0,0,1-1.656-1.589c0-1.333,1.155-2.022,3.156-2.022v-.1c0-.711-.378-1.067-1.122-1.067a2.521,2.521,0,0,0-1.411.4l-.244-.789A3.457,3.457,0,0,1,534.273,81c1.411,0,2.123.744,2.123,2.234v1.989a8.016,8.016,0,0,0,.078,1.289Zm-.167-2.69c-1.334,0-2,.323-2,1.089a.765.765,0,0,0,.822.844,1.148,1.148,0,0,0,1.178-1.1Zm3.841-3.6a.717.717,0,1,1,.756-.722A.705.705,0,0,1,539.069,80.224Zm.623,6.289h-1.2v-5.4h1.2Zm3.332,0h-1.2V78.636h1.2Zm5.1,0-.089-.622H548a1.841,1.841,0,0,1-1.578.744,1.572,1.572,0,0,1-1.656-1.589c0-1.333,1.155-2.022,3.155-2.022v-.1c0-.711-.378-1.067-1.122-1.067a2.521,2.521,0,0,0-1.411.4l-.245-.79A3.457,3.457,0,0,1,547,81c1.411,0,2.123.744,2.123,2.234v1.989a8.31,8.31,0,0,0,.077,1.289h-1.077Zm-.167-2.69c-1.334,0-2,.323-2,1.089a.765.765,0,0,0,.822.844,1.148,1.148,0,0,0,1.178-1.1Zm6.03,2.812a1.833,1.833,0,0,1-1.7-.956h-.024l-.069.834h-1.022c.033-.433.045-.923.045-1.455V78.636h1.2V81.9h.023a1.852,1.852,0,0,1,1.722-.9c1.3,0,2.212,1.112,2.212,2.733C556.375,85.413,555.363,86.636,553.986,86.636Zm-.244-4.69a1.381,1.381,0,0,0-1.322,1.434v.945a1.323,1.323,0,0,0,1.3,1.356c.9,0,1.434-.733,1.434-1.9C555.154,82.692,554.6,81.946,553.742,81.946Zm5.607,4.567h-1.2V78.636h1.2Zm6.532-2.411h-3.6a1.55,1.55,0,0,0,1.7,1.6,4.051,4.051,0,0,0,1.455-.255l.187.834a4.5,4.5,0,0,1-1.81.333,2.507,2.507,0,0,1-2.69-2.722,2.637,2.637,0,0,1,2.554-2.9,2.679,2.679,0,0,1,2.205,3.111Zm-1.1-.855c0-.834-.423-1.422-1.19-1.422a1.425,1.425,0,0,0-1.312,1.422h2.5Zm8.374,3.389a2.57,2.57,0,0,1-2.6-2.778A2.63,2.63,0,0,1,573.245,81a2.55,2.55,0,0,1,2.6,2.767A2.646,2.646,0,0,1,573.154,86.636Zm.046-4.756c-.867,0-1.422.811-1.422,1.944,0,1.112.567,1.922,1.411,1.922S574.6,84.88,574.6,83.8c0-1.1-.554-1.921-1.4-1.921Zm9.1,4.634h-1.2v-3.1c0-.955-.366-1.434-1.089-1.434a1.247,1.247,0,0,0-1.2,1.322v3.212h-1.2V82.657c0-.477-.013-.989-.045-1.545h1.056l.056.834h.033A1.937,1.937,0,0,1,580.418,81c1.132,0,1.877.867,1.877,2.277v3.235Zm7.852-4.5h-1.32v2.622q0,1,.7,1a2.374,2.374,0,0,0,.534-.056l.033.911a2.672,2.672,0,0,1-.932.134c-.946,0-1.51-.522-1.51-1.889V82.014h-.788v-.9h.788v-.989l1.177-.356v1.344h1.32Zm6.355,4.5h-1.2V83.436c0-.966-.366-1.455-1.089-1.455a1.175,1.175,0,0,0-1.2,1.278v3.255h-1.2V78.636h1.2V81.88h.023A1.817,1.817,0,0,1,594.658,81c1.144,0,1.843.889,1.843,2.3Zm6.131-2.411h-3.6a1.548,1.548,0,0,0,1.7,1.6,4.046,4.046,0,0,0,1.455-.255l.188.834a4.508,4.508,0,0,1-1.811.333,2.507,2.507,0,0,1-2.69-2.722,2.637,2.637,0,0,1,2.554-2.9,2.269,2.269,0,0,1,2.245,2.567,2.332,2.332,0,0,1-.04.544Zm-1.1-.855c0-.834-.421-1.422-1.189-1.422a1.423,1.423,0,0,0-1.312,1.422Z" transform="translate(-433.007 -58.063)" fill="#fff"/>
  </g>
</svg>
